<?xml version="1.0" encoding="utf-8"?>
<!-- Generator: Adobe Illustrator 22.1.0, SVG Export Plug-In . SVG Version: 6.00 Build 0)  -->
<svg version="1.1" baseProfile="tiny" id="Layer_1" xmlns="http://www.w3.org/2000/svg" xmlns:xlink="http://www.w3.org/1999/xlink"
	 x="0px" y="0px" viewBox="0 0 1280 720" xml:space="preserve">
<g>
	<path stroke="#2c9382" d="M485.6,285.6v18.1H364v-18.1h42.2v-22.2h23.3v22.2H485.6z M472.3,336.2c0,16-19.2,25.9-48.4,25.9s-48.4-9.9-48.4-25.9
		c0-16.1,19.2-26.1,48.4-26.1S472.3,320,472.3,336.2z M445,277.1c2.6-10.5,3.3-18.9,3.5-26.8h-71.1v-18.1h94.5v10.9
		c0,10.5,0,22.3-3.9,36.4L445,277.1z M449.1,336.2c0-6-8.6-8.6-25.2-8.6c-16.7,0-25.2,2.6-25.2,8.6c0,5.9,8.5,8.5,25.2,8.5
		C440.5,344.7,449.1,342.1,449.1,336.2z"/>
	<path stroke="#2c9382" d="M566.6,236.5c0,37.7-21.5,62.9-62.6,74l-9.5-18.1c28.8-7.5,43.6-21.2,46.8-37.6h-40.8v-18.3H566.6z M537.5,341.5h69.6v18.3
		h-92.9v-47.1h23.3V341.5z M620.2,262.6v18.9h-17v40.9h-23.3v-95.8h23.3v36H620.2z"/>
	<path stroke="#2c9382" d="M745.6,289.1c-26.6,4.6-56.4,5-79.6,5.2l-2-18.1h12.4v-24.2h-9.2v-17.7h73v17.7h-9.2v22c4.6-0.3,9.2-0.7,13.5-1.3
		L745.6,289.1z M778.3,343.4v17.7H682v-38.7h70.1v-4.6h-70.3v-17.6h93.3v38.6H705v4.6H778.3z M698.7,275.7c3.3,0,6.6-0.1,9.9-0.3
		v-23.5h-9.9V275.7z M775.1,295.4h-23.3v-68.7h23.3V295.4z"/>
	<path stroke="#2c9382" d="M821.5,312.6c16.1-0.3,30.7-1,46.5-3.6l1.9,18.9c-19.9,3-38.3,3.6-59.9,3.6h-11.5v-59.5h38v-16.4h-38.2v-18.1h61.2v52.6
		h-38V312.6z M908.3,226.4v135.8H885V292h-18.6v-18.6H885v-46.9H908.3z"/>
</g>
</svg>
