<?xml version="1.0" encoding="UTF-8"?>
<!DOCTYPE svg PUBLIC "-//W3C//DTD SVG 1.1//EN" "http://www.w3.org/Graphics/SVG/1.1/DTD/svg11.dtd">
<!-- Creator: CorelDRAW 2018 (64-Bit) -->
<svg xmlns="http://www.w3.org/2000/svg" xml:space="preserve" width="1280px" height="720px" version="1.1" shape-rendering="geometricPrecision" text-rendering="geometricPrecision" image-rendering="optimizeQuality" fill-rule="evenodd" clip-rule="evenodd"
viewBox="0 0 1280 720"
 xmlns:xlink="http://www.w3.org/1999/xlink">
 <g id="Layer_x0020_1">
  <metadata id="CorelCorpID_0Corel-Layer"/>
  <g id="_2090838618208">
   <path fill="black" d="M686.44 262.73l11.52 0 0 11.23 -11.52 0 0 -11.23zm-92.67 11.23l-11.23 0 0 -11.23 11.23 0c0,3.38 0,8.76 0,11.23zm58.14 -46.05l11.22 0 0 11.51 -11.22 0 0 -11.51zm46.08 11.51l-17.59 0 0 17.27 -17.27 0 0 17.27 -11.22 0 0 -28.5 17.27 0 0 -17.55c9.59,0 19.18,0 28.78,0l0.03 11.51zm-86.66 6.04l17.26 0 0 28.5 -11.22 0c0,-4.14 0,-11.87 0,-16.98l-0.29 0 0 -0.29 -17.27 0c0,-5.76 0,-11.51 0,-17.27l-17.27 0 0 -11.51 28.79 0c0,8.03 0,6.79 0,17.55zm6.04 -17.55l11.22 0 0 11.51 -11.22 0c0,-3.46 0,-8.97 0,-11.51zm0 -17.27l17.27 0 0 -17.56 11.22 0 0 17.56 17.27 0 0 11.22 -17.27 0 0 17.56 -11.22 0 0 -17.56 -17.27 0c0,-3.37 0,-8.75 0,-11.22zm34.54 -17.56l11.22 0 0 11.51 -11.22 0 0 -11.51zm-34.54 0l11.22 0 0 11.51 -11.22 0c0,-3.69 0,-8.66 0,-11.51zm34.54 -34.53l11.22 0 0 17.26 17.27 0 0 17.27 17.56 0 0 11.52 -28.78 -0.01 0 -17.26 -0.29 0 0 -0.29 -16.98 0 0 -28.49zm34.53 0l11.52 0 0 11.22 -11.52 0 0 -11.22zm-103.9 0l11.23 0 0 11.22 -11.23 0 0 -11.22zm34.83 0l11.22 0 0 28.49 -17.26 0 0 17.55 -28.79 0 0 -11.51 17.27 0 0 -17.27 17.56 0 0 -17.26zm86.34 -6.05l-23.31 0c0,6.25 0,10.94 0,17.27 -3.35,0 -7.28,0 -11.22,0l0 -17.27 -23.32 0 0 34.54 -11.22 0 0 -34.54 -23.31 0 0 17.27 -11.52 0c0,-6.32 0,-11.04 0,-17.27l-23.31 0 0 23.31 17.27 0 0 11.23c-5.76,0 -11.51,0 -17.27,0l0 23.6c8.6,0 24.27,0 34.83,0l0 11.22 -34.83 0 0 23.6 17.27 0c0,3.38 0,8.76 0,11.23l-17.27 0 0 23.31 23.31 0 0 -17.27 11.52 0 0 17.27 23.31 0 0 -34.54 11.22 0 0 34.54 23.32 0 0 -17.27 11.22 0 0 17.27 23.31 0 0 -23.31 -17.27 0 0 -11.23c6.36,0 11.19,0 17.27,0l0 -23.6 -34.53 0 0 -11.22c7.99,0 24.44,0 34.53,0l0 -23.6 -17.27 0 0 -11.23 17.27 0c0,-7.66 0,-16.44 0,-23.31z"/>
   <path fill="black" d="M830.44 406.73l11.52 0 0 11.23 -11.52 0 0 -11.23zm-92.67 11.23l-11.23 0 0 -11.23 11.23 0c0,3.38 0,8.76 0,11.23zm58.14 -46.05l11.22 0 0 11.51 -11.22 0 0 -11.51zm46.08 11.51l-17.59 0 0 17.27 -17.27 0 0 17.27 -11.22 0 0 -28.5 17.26 0 0 -17.55c9.6,0 19.19,0 28.79,0l0.03 11.51zm-86.67 6.04l17.27 0 0 28.5 -11.22 0c0,-4.14 0,-11.87 0,-16.98l-0.29 0 0 -0.29 -17.27 0c0,-5.76 0,-11.51 0,-17.27l-17.27 0 0 -11.51 28.78 0c0,8.03 0,6.79 0,17.55zm6.05 -17.55l11.22 0 0 11.51 -11.22 0c0,-3.46 0,-8.97 0,-11.51zm0 -17.27l17.27 0 0 -17.56 11.22 0 0 17.56 17.27 0 0 11.22 -17.27 0 0 17.56 -11.22 0 0 -17.56 -17.27 0c0,-3.37 0,-8.75 0,-11.22zm34.54 -17.56l11.22 0 0 11.51 -11.22 0 0 -11.51zm-34.54 0l11.22 0 0 11.51 -11.22 0c0,-3.69 0,-8.66 0,-11.51zm34.54 -34.53l11.22 0 0 17.26 17.27 0 0 17.27 17.56 0 0 11.52 -28.79 -0.01 0 -17.26 -0.28 0 0 -0.29 -16.98 0 0 -28.49zm34.53 0l11.52 0 0 11.22 -11.52 0 0 -11.22zm-103.9 0l11.23 0 0 11.22 -11.23 0 0 -11.22zm34.83 0l11.22 0 0 28.49 -17.27 0 0 17.55 -28.78 0 0 -11.51 17.27 0 0 -17.27 17.56 0 0 -17.26zm86.34 -6.05l-23.31 0c0,6.25 0,10.94 0,17.27 -3.35,0 -7.28,0 -11.23,0l0 -17.27 -23.31 0 0 34.54 -11.22 0 0 -34.54 -23.32 0 0 17.27 -11.51 0c0,-6.32 0,-11.04 0,-17.27l-23.31 0 0 23.31 17.27 0 0 11.23c-5.76,0 -11.51,0 -17.27,0l0 23.6c8.6,0 24.27,0 34.82,0l0 11.22 -34.82 0 0 23.6 17.27 0c0,3.38 0,8.76 0,11.23l-17.27 0 0 23.31 23.31 0 0 -17.27 11.51 0 0 17.27 23.32 0 0 -34.54 11.22 0 0 34.54 23.31 0 0 -17.27 11.23 0 0 17.27 23.31 0 0 -23.31 -17.27 0 0 -11.23c6.36,0 11.19,0 17.27,0l0 -23.6 -34.54 0 0 -11.22c8,0 24.45,0 34.54,0l0 -23.6 -17.27 0 0 -11.23 17.27 0c0,-7.65 0,-16.44 0,-23.31z"/>
   <path fill="black" d="M542.44 406.73l11.52 0 0 11.23 -11.52 0 0 -11.23zm-92.67 11.23l-11.23 0 0 -11.23 11.23 0c0,3.38 0,8.76 0,11.23zm58.14 -46.05l11.22 0 0 11.51 -11.22 0 0 -11.51zm46.08 11.51l-17.59 0 0 17.27 -17.27 0 0 17.27 -11.22 0 0 -28.5 17.27 0 0 -17.55c9.59,0 19.18,0 28.78,0l0.03 11.51zm-86.67 6.04l17.27 0 0 28.5 -11.22 0c0,-4.14 0,-11.87 0,-16.98l-0.29 0 0 -0.29 -17.27 0c0,-5.76 0,-11.51 0,-17.27l-17.27 0 0 -11.51 28.78 0c0,8.03 0,6.79 0,17.55zm6.05 -17.55l11.22 0 0 11.51 -11.22 0c0,-3.46 0,-8.97 0,-11.51zm0 -17.27l17.27 0 0 -17.56 11.22 0 0 17.56 17.27 0 0 11.22 -17.27 0 0 17.56 -11.22 0 0 -17.56 -17.27 0c0,-3.37 0,-8.75 0,-11.22zm34.54 -17.56l11.22 0 0 11.51 -11.22 0 0 -11.51zm-34.54 0l11.22 0 0 11.51 -11.22 0c0,-3.69 0,-8.66 0,-11.51zm34.54 -34.53l11.22 0 0 17.26 17.27 0 0 17.27 17.56 0 0 11.52 -28.78 -0.01 0 -17.26 -0.29 0 0 -0.29 -16.98 0 0 -28.49zm34.53 0l11.52 0 0 11.22 -11.52 0 0 -11.22zm-103.9 0l11.23 0 0 11.22 -11.23 0 0 -11.22zm34.83 0l11.22 0 0 28.49 -17.27 0 0 17.55 -28.78 0 0 -11.51 17.27 0 0 -17.27 17.56 0 0 -17.26zm86.34 -6.05l-23.31 0c0,6.25 0,10.94 0,17.27 -3.35,0 -7.28,0 -11.22,0l0 -17.27 -23.32 0 0 34.54 -11.22 0 0 -34.54 -23.32 0 0 17.27 -11.51 0c0,-6.32 0,-11.04 0,-17.27l-23.31 0 0 23.31 17.27 0 0 11.23c-5.76,0 -11.51,0 -17.27,0l0 23.6c8.6,0 24.27,0 34.82,0l0 11.22 -34.82 0 0 23.6 17.27 0c0,3.38 0,8.76 0,11.23l-17.27 0 0 23.31 23.31 0 0 -17.27 11.51 0 0 17.27 23.32 0 0 -34.54 11.22 0 0 34.54 23.32 0 0 -17.27 11.22 0 0 17.27 23.31 0 0 -23.31 -17.27 0 0 -11.23c6.36,0 11.19,0 17.27,0l0 -23.6 -34.53 0 0 -11.22c7.99,0 24.44,0 34.53,0l0 -23.6 -17.27 0 0 -11.23 17.27 0c0,-7.65 0,-16.44 0,-23.31z"/>
  </g>
  <path fill="black" d="M686.44 550.73l11.52 0 0 11.23 -11.52 0 0 -11.23zm-92.67 11.23l-11.23 0 0 -11.23 11.23 0c0,3.38 0,8.76 0,11.23zm58.14 -46.05l11.22 0 0 11.51 -11.22 0 0 -11.51zm46.08 11.51l-17.59 0 0 17.27 -17.27 0 0 17.27 -11.22 0 0 -28.5 17.27 0 0 -17.55c9.59,0 19.18,0 28.78,0l0.03 11.51zm-86.66 6.04l17.26 0 0 28.5 -11.22 0c0,-4.14 0,-11.87 0,-16.98l-0.29 0 0 -0.29 -17.27 0c0,-5.76 0,-11.51 0,-17.27l-17.27 0 0 -11.51 28.79 0c0,8.03 0,6.79 0,17.55zm6.04 -17.55l11.22 0 0 11.51 -11.22 0c0,-3.46 0,-8.97 0,-11.51zm0 -17.27l17.27 0 0 -17.56 11.22 0 0 17.56 17.27 0 0 11.22 -17.27 0 0 17.56 -11.22 0 0 -17.56 -17.27 0c0,-3.38 0,-8.76 0,-11.22zm34.54 -17.56l11.22 0 0 11.51 -11.22 0 0 -11.51zm-34.54 0l11.22 0 0 11.51 -11.22 0c0,-3.69 0,-8.66 0,-11.51zm34.54 -34.54l11.22 0 0 17.27 17.27 0 0 17.27 17.56 0 0 11.51 -28.78 0 0 -17.26 -0.29 0 0 -0.29 -16.98 0 0 -28.5zm34.53 0l11.52 0 0 11.23 -11.52 0 0 -11.23zm-103.9 0l11.23 0 0 11.23 -11.23 0 0 -11.23zm34.83 0l11.22 0 0 28.5 -17.26 0 0 17.55 -28.79 0 0 -11.51 17.27 0 0 -17.27 17.56 0 0 -17.27zm86.34 -6.04l-23.31 0c0,6.25 0,10.94 0,17.27 -3.35,0 -7.28,0 -11.22,0l0 -17.27 -23.32 0 0 34.54 -11.22 0 0 -34.54 -23.31 0 0 17.27 -11.52 0c0,-6.32 0,-11.04 0,-17.27l-23.31 0 0 23.31 17.27 0 0 11.23c-5.76,0 -11.51,0 -17.27,0l0 23.6c8.6,0 24.27,0 34.83,0l0 11.22 -34.83 0 0 23.6 17.27 0c0,3.38 0,8.76 0,11.23l-17.27 0 0 23.31 23.31 0 0 -17.27 11.52 0 0 17.27 23.31 0 0 -34.54 11.22 0 0 34.54 23.32 0 0 -17.27 11.22 0 0 17.27 23.31 0 0 -23.31 -17.27 0 0 -11.23c6.36,0 11.19,0 17.27,0l0 -23.6 -34.53 0 0 -11.22c7.99,0 24.44,0 34.53,0l0 -23.6 -17.27 0 0 -11.23 17.27 0c0,-7.66 0,-16.44 0,-23.31z"/>
 </g>
</svg>
