<?xml version="1.0" encoding="utf-8"?>
<svg version="1.2" baseProfile="tiny" id="Layer_1" xmlns="http://www.w3.org/2000/svg"
	 x="0px" y="0px" width="600px" height="350px" viewBox="0 0 600 350" xml:space="preserve">
<polyline id="large" fill="none" stroke="#A798B1" stroke-width="2.13" stroke-linejoin="round" stroke-miterlimit="10" points="
	38.4,140.5 46,141.9 52.4,143.1 58.7,144.1 65.2,145.3 71.5,146.4 78,147.4 84.4,148.4 90.8,149.4 97.3,150.3 103.6,151.3
	110.1,152.2 116.4,153 122.8,153.8 129.2,154.6 135.6,155.4 142.1,156 148.5,156.8 154.9,157.5 161.3,158 167.7,158.6 174.1,159.2 
	180.5,159.7 186.9,160.1 193.3,160.4 199.7,160.8 206.1,161.1 212.6,161.3 218.9,161.6 225.4,161.8 231.7,162 238.2,162.1 
	244.6,162.3 251,162.5 257.4,162.7 263.8,162.9 270.2,163.1 276.6,163.3 283,163.6 289.4,163.9 295.9,164.2 302.2,164.6 
	308.7,164.9 315.1,165.2 321.5,165.6 327.9,165.9 334.3,166.2 340.7,166.5 347.1,166.9 353.5,167.2 359.9,167.5 366.3,168 
	372.8,168.4 379.1,168.8 385.6,169.2 392,169.8 398.4,170.3 404.7,170.8 411.2,171.4 417.6,172.1 424,172.8 430.4,173.5 
	436.8,174.2 443.3,175.1 449.6,175.9 456.1,176.7 462.4,177.6 468.9,178.4 475.2,179.4 481.7,180.4 488.1,181.3 494.5,182.3 
	500.9,183.3 507.3,184.4 513.7,185.5 520.1,186.6 526.6,187.8 532.9,188.9 539.4,190.1 545.8,191.5 "/>
<polyline id="flawed" points="38.4"/>
</svg>
