<?xml version="1.0" encoding="utf-8"?>
<!-- Generator: Adobe Illustrator 22.1.0, SVG Export Plug-In . SVG Version: 6.00 Build 0)  -->
<svg version="1.1" baseProfile="tiny" id="Layer_1" xmlns="http://www.w3.org/2000/svg"
     xmlns:xlink="http://www.w3.org/1999/xlink"
     x="0px" y="0px" viewBox="0 0 1280 720" xml:space="preserve">
<g>
	<path stroke="#2c9382" d="M261.5,311.9V405h-25.3v-63.8h-0.9c-1.2,1.7-3.4,3.3-6.4,4.7s-7.1,2.2-12.1,2.2v-19.8c3.5,0,6.7-0.8,9.6-2.3s5.3-3.5,7-6
		c1.8-2.5,2.7-5.2,2.7-8.1H261.5z"/>
    <path stroke="#2c9382" d="M319.5,406.3c-5.4,0-10.6-0.9-15.4-2.6c-4.8-1.7-9.1-4.4-12.9-8.1c-3.7-3.7-6.7-8.5-8.8-14.5c-2.1-5.9-3.2-13.1-3.3-21.6
		c0-10.2,1.7-19,5.1-26.3c3.4-7.4,8.1-13,14.2-17c6.1-4,13.2-6,21.3-6c6.8,0,12.9,1.3,18.1,4c5.2,2.7,9.4,6.2,12.5,10.7
		c3.1,4.5,4.9,9.4,5.4,14.8h-24.9c-0.6-2.8-1.9-4.9-4-6.1c-2.1-1.3-4.4-1.9-7.1-1.9c-5.3,0-9.2,2.3-11.7,7
		c-2.5,4.6-3.7,10.8-3.8,18.5h0.5c1.8-4.3,4.9-7.6,9.3-10c4.4-2.4,9.2-3.6,14.5-3.6c5.6,0,10.6,1.3,14.8,3.8c4.2,2.5,7.5,6,9.9,10.5
		c2.4,4.4,3.5,9.5,3.5,15.2c0,6.7-1.5,12.5-4.7,17.5c-3.2,5-7.6,8.9-13.2,11.6C333.3,404.9,326.9,406.3,319.5,406.3z M319.4,387.2
		c3.8,0,6.9-1.3,9.3-3.8c2.4-2.5,3.6-5.7,3.6-9.5c0.1-3.8-1.1-7-3.6-9.5c-2.4-2.5-5.6-3.8-9.3-3.8c-3.7,0-6.7,1.3-9.2,3.8
		c-2.4,2.5-3.7,5.7-3.8,9.5c0.1,3.8,1.3,7,3.8,9.5C312.6,385.9,315.7,387.2,319.4,387.2z"/>
    <path stroke="#2c9382" d="M414.3,349v18.9h-43.6V349H414.3z"/>
    <path stroke="#2c9382" d="M473.4,311.9V405h-25.3v-63.8h-0.9c-1.2,1.7-3.4,3.3-6.4,4.7s-7.1,2.2-12.1,2.2v-19.8c3.5,0,6.7-0.8,9.6-2.3s5.3-3.5,7-6
		c1.8-2.5,2.7-5.2,2.7-8.1H473.4z"/>
    <path stroke="#2c9382" d="M530.4,406.3c-7.5,0-14.2-1.2-20.1-3.5c-5.9-2.3-10.5-5.5-13.9-9.5c-3.4-4-5.1-8.5-5.1-13.5c0-3.8,1-7.4,2.9-10.5
		s4.5-5.8,7.8-7.9c3.3-2.1,6.9-3.5,11-4.1v-0.7c-5.3-0.9-9.7-3.3-13.1-7.1c-3.4-3.8-5.1-8.3-5.1-13.5c0-4.9,1.5-9.2,4.6-13
		c3.1-3.8,7.3-6.8,12.7-9c5.4-2.2,11.5-3.3,18.3-3.3c6.8,0,13,1.1,18.3,3.3c5.4,2.2,9.6,5.2,12.7,9c3.1,3.8,4.6,8.1,4.6,13
		c0,5.2-1.7,9.7-5.2,13.5c-3.5,3.8-7.8,6.1-13,7v0.7c4,0.6,7.6,2,10.9,4.1c3.3,2.1,5.9,4.8,7.8,7.9s2.9,6.7,2.9,10.5
		c0,5-1.7,9.5-5.1,13.5s-8,7.2-13.9,9.5C544.7,405.1,538,406.3,530.4,406.3z M530.4,388.8c3.6,0,6.5-1.1,8.9-3.2
		c2.3-2.1,3.5-4.8,3.5-8.1c0-3.2-1.2-5.9-3.5-8c-2.3-2.1-5.3-3.1-8.9-3.1s-6.5,1-8.9,3.1c-2.3,2.1-3.5,4.7-3.5,8
		c0,3.2,1.2,5.9,3.5,8C523.9,387.7,526.9,388.8,530.4,388.8z M530.4,349c3.2,0,5.8-1,7.8-2.9c2.1-1.9,3.1-4.4,3.1-7.3
		c0-2.9-1-5.3-3.1-7.2c-2.1-1.9-4.7-2.8-7.8-2.8c-3.2,0-5.8,0.9-7.8,2.8c-2.1,1.9-3.1,4.3-3.1,7.2c0,2.9,1,5.3,3.1,7.3
		C524.7,348,527.3,349,530.4,349z"/>
    <path stroke="#2c9382" d="M630.3,405H603l30.7-93.1h34.5L699,405h-27.3l-5.4-17.8h-30.7L630.3,405z M641.4,368.3h19.3l-9.3-30.7h-0.7L641.4,368.3z"
    />
    <path stroke="#2c9382" d="M753.5,374.5v-39.3h25.1V405h-23.8v-13.3h-0.7c-1.5,4.5-4.2,7.9-8,10.4c-3.8,2.5-8.3,3.8-13.5,3.8c-4.9,0-9.1-1.1-12.8-3.4
		c-3.7-2.2-6.5-5.3-8.5-9.3c-2-3.9-3-8.5-3.1-13.5v-44.5h25.1v39.3c0,3.5,0.9,6.2,2.7,8.1s4.2,3,7.3,3c3.1,0,5.6-1,7.5-3
		C752.7,380.6,753.6,377.9,753.5,374.5z"/>
    <path stroke="#2c9382" d="M825,431.9c-7,0-13-1-18-2.9c-5-2-8.8-4.6-11.6-8c-2.7-3.4-4.3-7.2-4.6-11.4H815c0.4,1.8,1.5,3.2,3.5,4.1
		c2,0.9,4.4,1.3,7.3,1.3c3.2,0,5.9-0.8,8.1-2.3c2.1-1.5,3.2-4.2,3.2-7.9V393h-0.7c-1.4,3.5-3.8,6.3-7.3,8.2s-7.6,2.9-12.3,2.9
		c-5,0-9.5-1.2-13.7-3.5c-4.2-2.3-7.5-6-10-11s-3.8-11.5-3.8-19.6c0-8.4,1.3-15.3,3.9-20.5c2.6-5.3,6-9.1,10.2-11.6
		c4.2-2.5,8.6-3.7,13.2-3.7c5.2,0,9.4,1.3,12.7,3.9c3.3,2.6,5.6,5.7,7,9.2h0.5v-12.2h25.1v69.6c0,5.7-1.5,10.5-4.6,14.6
		c-3,4-7.3,7.1-12.8,9.3C838.8,430.8,832.4,431.9,825,431.9z M825.9,386.3c3.5,0,6.2-1.4,8.1-4.3c2-2.8,3-6.8,3-11.9
		c0-5.2-1-9.2-3-12.2c-2-2.9-4.7-4.4-8.1-4.4c-3.5,0-6.1,1.5-8,4.4c-1.9,2.9-2.9,7-2.9,12.2c0,5.2,1,9.2,2.9,12
		S822.4,386.3,825.9,386.3z"/>
    <path stroke="#2c9382" d="M919.7,374.5v-39.3h25.1V405H921v-13.3h-0.7c-1.5,4.5-4.2,7.9-8,10.4c-3.8,2.5-8.3,3.8-13.5,3.8c-4.9,0-9.1-1.1-12.8-3.4
		c-3.7-2.2-6.5-5.3-8.5-9.3c-2-3.9-3-8.5-3.1-13.5v-44.5h25.1v39.3c0,3.5,0.9,6.2,2.7,8.1s4.2,3,7.3,3c3.1,0,5.6-1,7.5-3
		C918.8,380.6,919.7,377.9,919.7,374.5z"/>
    <path stroke="#2c9382" d="M1021.4,357.9h-23.1c-0.2-2.2-1.2-3.8-3-5.1c-1.8-1.2-4-1.8-6.5-1.8c-2.2,0-4,0.4-5.5,1.2c-1.5,0.8-2.3,1.9-2.3,3.4
		c0,1,0.4,2,1.3,2.9c0.9,0.9,2.7,1.6,5.4,2l14.2,2.5c14.1,2.5,21.2,8.8,21.3,18.9c0,5-1.5,9.3-4.4,12.9c-2.9,3.7-6.9,6.5-12,8.5
		c-5,2-10.8,3-17.3,3c-10.7,0-19-2.2-25-6.5c-6-4.4-9.4-10.1-10.1-17.3h24.9c0.3,2.2,1.4,3.9,3.3,5.1c1.9,1.2,4.2,1.8,7.1,1.8
		c2.3,0,4.2-0.4,5.7-1.2c1.5-0.8,2.3-1.9,2.3-3.4c-0.1-2.4-2.8-4.1-8-5.1l-12.4-2.2c-14.3-2.5-21.4-9.4-21.3-20.5
		c0-7.3,2.8-12.9,8.6-16.8c5.8-3.9,13.6-5.9,23.6-5.9c10.1,0,18.1,2.1,23.9,6.3C1018,344.7,1021,350.5,1021.4,357.9z"/>
    <path stroke="#2c9382" d="M1074.4,335.2v18.2h-12v29.2c0,2.9,1.6,4.4,4.7,4.4c0.8,0,1.6-0.1,2.7-0.3c1-0.2,1.8-0.3,2.3-0.5l3.6,17.6
		c-1.1,0.3-2.7,0.7-4.8,1.2c-2.1,0.5-4.5,0.8-7.4,1c-8.7,0.5-15.2-1.1-19.7-4.7c-4.4-3.6-6.6-9.1-6.5-16.4v-31.5h-8.9v-18.2h8.9
		v-16.7h25.1v16.7H1074.4z"/>
</g>
</svg>
