<?xml version="1.0" encoding="UTF-8"?>
<svg width="48" height="48" version="1.2" viewBox="0 0 12.7 12.7" xmlns="http://www.w3.org/2000/svg"><rect width="12.7" height="12.7" fill="#ffc0cb" stroke-width="1.027"/><g stop-color="#000000" stroke-width=".6"><path d="m4.135 8.32-0.333-1.123h-1.383l-0.333 1.123h-0.4911l1.208-3.94h0.6265l1.208 3.94zm-0.9991-3.437h-0.0508l-0.5532 1.902h1.157z"/><path d="m5.314 8.32v-3.94h1.434q0.5475 0 0.8354 0.2992 0.2879 0.2992 0.2879 0.8354t-0.2879 0.8354q-0.2879 0.2992-0.8354 0.2992h-0.9596v1.671zm0.4741-2.083h0.9483q0.2992 0 0.4628-0.1468 0.1693-0.1524 0.1693-0.429v-0.2935q0-0.2766-0.1693-0.4233-0.1637-0.1524-0.4628-0.1524h-0.9483z"/><path d="m8.667 8.32v-0.3782h0.9821v-3.183h-0.9821v-0.3782h2.438v0.3782h-0.9821v3.183h0.9821v0.3782z"/></g></svg>
